<svg xmlns="http://www.w3.org/2000/svg" viewBox="0 0 511.5 62.6"><defs><style>.cls-1{fill:#002d74;}.cls-2,.cls-3{fill:#092d74;}.cls-3{font-size:42.61px;font-family:FZCYSK--GBK1-0, FZYaSong-B-GBK;}</style></defs><title>资源 6</title><g id="图层_2" data-name="图层 2"><g id="图层_11" data-name="图层 11"><path id="_复合路径_" data-name="&lt;复合路径&gt;" class="cls-1" d="M301.5,19.64l0-10h2.84c1.78,0,2.61.12,2.5.34v.67a7,7,0,0,0-.34,2.32l0,6.63h2.67l0,4.31h-2.67l-.06,22.72h-5L301.49,24h-4.34V19.62Zm17.21-7.09V9.24h2.5c2,0,2.9.12,2.67.33.11.12.11.28,0,.5l-.33,1.33v1.16h3.17a4.58,4.58,0,0,0-.66-1.16,8.5,8.5,0,0,1-.67-1l4.52-2.14a27.61,27.61,0,0,1,2.32,4.15h2.84v3.81l-11.52,0V18l9.18,0-.05,15.26H331v1.49l5.51,0v3.48H331l0,5.8q1,3.81-8.85,3.46a7.69,7.69,0,0,0-1.33-5.15c3.79.24,5.4-.31,4.85-1.64V38.28l-9.35,0c.33.45.94,1.44,1.83,3a12.43,12.43,0,0,0,.83,1.5l-4.51,2a40,40,0,0,0-3-4.82l3.67-1.65-7,0V34.75l17.53,0v-2h1.67v-2H323.5V33.3h-4.84V30.8h-3.51v2.32h-4.68l0-15.1,8.18,0V16.2l-9.85,0V12.53Zm0,8.63h-3.51V23h3.5Zm0,6.63V26h-3.5V27.8ZM327.36,23V21.2h-3.84V23Zm0,3h-3.84v1.83h3.84Z"/><path id="_复合路径_2" data-name="&lt;复合路径&gt;" class="cls-1" d="M257.85,16.52l12,0,0-7.8,5.51,0v2l13.68,0V15l-13.69,0v1.65l17.19.05a60.75,60.75,0,0,1-1.53,7.8l-5.17-.52.68-3-10.68,0V23l8.52-.8.32,3a27.69,27.69,0,0,0,4.33,2q-.67,5.15-5.18,5l-10.19,0c-2.11.1-3.11-1-3-3.33V27.34L264.5,28l-.33-4,6.51-.48V20.87l-7.67,0,0,8.46q-.19,10.44-3.89,17.4a19.09,19.09,0,0,0-5-2l.17-.33a31.27,31.27,0,0,0,3.55-15.09Zm2.76,27.54.5-.16c3.9-1,5.85-3.63,5.87-7.95V33.47l15.36,0,0,7.46c-.23,1,.22,1.44,1.33,1.33h2.17c1.33,0,2-1.32,2-4a51.68,51.68,0,0,0,5.34,1.51q-.53,7.45-4.86,6.95l-7.34,0c-2.9.11-4.29-1.17-4.17-3.82l0-5.31h-4.67q-.52,4.63-2.53,6.62a15.29,15.29,0,0,1-5.35,3.47A28.53,28.53,0,0,0,260.61,44.06Zm16.07-15.71,4.84,0c1.22,0,1.89-.71,2-2.15l-7.68.64C275.73,28,276,28.46,276.68,28.35Z"/><path id="_复合路径_3" data-name="&lt;复合路径&gt;" class="cls-1" d="M247.74,29.65q0,8.1-4.71,13t-12.67,4.85q-8.12,0-12.8-5t-4.67-12.94q0-8,4.71-13t12.86-4.9q8.19,0,12.84,5.08Q247.76,21.67,247.74,29.65Zm-9.14,0q0-10.36-8.16-10.39t-8.28,10.34q0,10.35,8.22,10.38T238.6,29.66Z"/><path id="_复合路径_4" data-name="&lt;复合路径&gt;" class="cls-1" d="M211.87,29.26a24.3,24.3,0,0,1-1.87,10,14.48,14.48,0,0,1-12.87,8.27,10.31,10.31,0,0,1-9.4-5.27h-.32v4.22l-8.57,0,.14-46,8.88,0,0,16.36a11.57,11.57,0,0,1,10.05-5.34h.06a12.41,12.41,0,0,1,10.73,5.6A21,21,0,0,1,211.87,29.26Zm-9.14.51q0-10.44-7.71-10.47-7.54,0-7.57,10.94a10.84,10.84,0,0,0,2.34,7.34,6.75,6.75,0,0,0,5.24,2.5,6.56,6.56,0,0,0,5.25-2.54A11.65,11.65,0,0,0,202.73,29.77Z"/><path id="_复合路径_5" data-name="&lt;复合路径&gt;" class="cls-1" d="M176.13,29.44q0,8.1-4.7,13t-12.67,4.84c-5.42,0-9.68-1.68-12.81-5s-4.67-7.62-4.66-12.94,1.58-9.69,4.71-13,7.4-4.93,12.86-4.91,9.73,1.71,12.84,5.08S176.15,24.12,176.13,29.44Zm-9.14,0q0-10.36-8.15-10.38T150.56,29.4q0,10.35,8.22,10.38T167,29.45Z"/><path id="_复合路径_6" data-name="&lt;复合路径&gt;" class="cls-1" d="M141.32,20.68a16.71,16.71,0,0,0-2.5-.2q-8.23,0-8.27,8.16l-.05,17.71-9,0,.1-34.08,8.5,0v2.62a6.81,6.81,0,0,0,.06,1.47,1.22,1.22,0,0,1,.19-.13,19.45,19.45,0,0,1,4-3.44,11.68,11.68,0,0,1,5.82-1.26h1.21Z"/><path id="_复合路径_7" data-name="&lt;复合路径&gt;" class="cls-1" d="M119.1,31.67,95.64,31.6a9.61,9.61,0,0,0,2.66,6.48,7,7,0,0,0,5,1.92,7.44,7.44,0,0,0,3.9-1,4.68,4.68,0,0,0,2.24-2.74l9.21,0a14.63,14.63,0,0,1-5.52,8,15.71,15.71,0,0,1-9.41,2.82q-17.07,0-17-18.62,0-7.85,4.35-12.53t12.13-4.65Q119.16,11.35,119.1,31.67ZM109.91,26a8.41,8.41,0,0,0-2.32-5.44,6.42,6.42,0,0,0-4.63-2,6,6,0,0,0-4.41,1.84A9.32,9.32,0,0,0,96,25.92Z"/><path id="_复合路径_8" data-name="&lt;复合路径&gt;" class="cls-1" d="M84.79,48.13A13.05,13.05,0,0,1,79.46,59,18.92,18.92,0,0,1,67.77,62.6,17.81,17.81,0,0,1,56.49,59a13.24,13.24,0,0,1-5.08-11l8.36,0a6.2,6.2,0,0,0,2.28,5.12,7.86,7.86,0,0,0,5.16,1.67,9.27,9.27,0,0,0,5.87-1.9,6.93,6.93,0,0,0,2.76-5.68V42a7,7,0,0,1-3.52,3.57A12.78,12.78,0,0,1,66.5,46.8a15,15,0,0,1-9.19-3A13.23,13.23,0,0,1,52,34.48a57.55,57.55,0,0,1-.56-6.65,19.82,19.82,0,0,1,2-8.5,13.88,13.88,0,0,1,5.43-6,14.07,14.07,0,0,1,7.54-2.22,10.29,10.29,0,0,1,9.41,5.27.19.19,0,0,1,.13.07V12.11l9,0ZM76.14,30q0-11-7.6-11T60.8,29.39a11.66,11.66,0,0,0,2.42,7.81,6.55,6.55,0,0,0,5.25,2.57,6.77,6.77,0,0,0,5.28-2.47A10.92,10.92,0,0,0,76.14,30Z"/><rect id="_路径_" data-name="&lt;路径&gt;" class="cls-1" x="26.92" y="24.55" width="34.08" height="9.01" transform="translate(14.77 72.93) rotate(-89.83)"/><path id="_复合路径_9" data-name="&lt;复合路径&gt;" class="cls-1" d="M37.34,8.23l-13.88,0L23.35,46,13.7,46l.11-37.85L0,8.12,0,0,37.36.11Z"/><rect class="cls-2" x="360.12" y="4.51" width="1.5" height="46.47"/></g><g id="图层_13" data-name="图层 13"><text class="cls-3" transform="matrix(1, 0, -0.09, 1, 381, 43.36)">搜债券</text></g></g></svg>