<svg xmlns="http://www.w3.org/2000/svg" viewBox="0 0 508.41 62.69"><defs><style>.cls-1{fill:#002d74;}.cls-2{fill:#c30d23;}.cls-3{fill:#092d74;}</style></defs><title>资源 8</title><g id="图层_2" data-name="图层 2"><g id="图层_11" data-name="图层 11"><path id="_复合路径_" data-name="&lt;复合路径&gt;" class="cls-1" d="M301.5,19.74l0-9.95h2.84c1.78,0,2.61.12,2.5.34v.67a7,7,0,0,0-.34,2.32l0,6.63h2.67l0,4.31h-2.67l-.06,22.72h-5l.07-22.72h-4.34V19.72Zm17.21-7.09V9.34h2.5q3,0,2.67.33c.11.12.11.28,0,.5l-.33,1.33v1.16h3.17a4.58,4.58,0,0,0-.66-1.16,8.5,8.5,0,0,1-.67-1l4.52-2.14a27.61,27.61,0,0,1,2.32,4.15h2.84v3.81l-11.52,0v1.82l9.18,0-.05,15.26H331v1.49l5.51,0v3.48H331l0,5.8q1,3.81-8.85,3.46a7.69,7.69,0,0,0-1.33-5.15c3.79.24,5.4-.31,4.85-1.64V38.38l-9.35,0c.33.45.94,1.44,1.83,3a12.43,12.43,0,0,0,.83,1.5l-4.51,2a40,40,0,0,0-3-4.82l3.67-1.65-7,0V34.85l17.53,0v-2h1.67v-2H323.5V33.4l-4.84,0V30.9h-3.51v2.32h-4.68l0-15.1,8.18,0V16.3l-9.85,0V12.63Zm0,8.63h-3.51v1.82h3.5Zm0,6.63V26.09h-3.5V27.9Zm8.69-4.78V21.3h-3.84v1.83Zm0,3h-3.84v1.83h3.84Z"/><path id="_复合路径_2" data-name="&lt;复合路径&gt;" class="cls-1" d="M257.85,16.62l12,0,0-7.8,5.51,0v2l13.68,0v4.15l-13.69,0v1.65l17.19,0A60.2,60.2,0,0,1,291,24.51L285.87,24l.68-3-10.68,0v2.15l8.52-.8.32,3a27.69,27.69,0,0,0,4.33,2q-.67,5.15-5.18,5l-10.19,0q-3.17.15-3-3.33V27.44l-6.17.65-.33-4,6.51-.48V21L263,21l0,8.46q-.19,10.44-3.89,17.4a19.09,19.09,0,0,0-5-2l.17-.33a31.27,31.27,0,0,0,3.55-15.09Zm2.76,27.54.5-.16c3.9-1,5.85-3.63,5.87-8V33.57l15.36,0,0,7.46c-.23,1,.22,1.44,1.33,1.33h2.17c1.33,0,2-1.32,2-4a49,49,0,0,0,5.34,1.5q-.53,7.47-4.86,7l-7.34,0c-2.9.11-4.29-1.17-4.17-3.82l0-5.31h-4.67q-.52,4.64-2.53,6.62a15.29,15.29,0,0,1-5.35,3.47A28.53,28.53,0,0,0,260.61,44.16Zm16.07-15.71,4.84,0c1.22,0,1.89-.71,2-2.15l-7.68.64C275.73,28.06,276,28.56,276.68,28.45Z"/><path id="_复合路径_3" data-name="&lt;复合路径&gt;" class="cls-1" d="M247.74,29.75q0,8.1-4.71,13t-12.67,4.85q-8.12,0-12.8-5t-4.67-12.93q0-8,4.71-13t12.86-4.9q8.19,0,12.84,5.08Q247.76,21.77,247.74,29.75Zm-9.14,0q0-10.35-8.16-10.38t-8.28,10.34q0,10.35,8.22,10.38T238.6,29.75Z"/><path id="_复合路径_4" data-name="&lt;复合路径&gt;" class="cls-1" d="M211.87,29.36a24.3,24.3,0,0,1-1.87,10,14.48,14.48,0,0,1-12.87,8.27,10.32,10.32,0,0,1-9.4-5.27h-.32v4.22l-8.57,0,.14-46,8.88,0,0,16.36a11.57,11.57,0,0,1,10.05-5.34h.06a12.43,12.43,0,0,1,10.73,5.59A21,21,0,0,1,211.87,29.36Zm-9.14.51q0-10.44-7.71-10.47-7.54,0-7.57,10.94a10.85,10.85,0,0,0,2.34,7.34,6.75,6.75,0,0,0,5.24,2.5,6.56,6.56,0,0,0,5.25-2.54A11.65,11.65,0,0,0,202.73,29.87Z"/><path id="_复合路径_5" data-name="&lt;复合路径&gt;" class="cls-1" d="M176.13,29.54q0,8.1-4.7,13t-12.67,4.85c-5.42,0-9.68-1.68-12.81-5s-4.67-7.62-4.66-12.94,1.58-9.69,4.71-13,7.4-4.93,12.86-4.91,9.73,1.71,12.84,5.08S176.15,24.22,176.13,29.54Zm-9.14,0q0-10.36-8.15-10.38T150.56,29.5q0,10.35,8.22,10.38T167,29.55Z"/><path id="_复合路径_6" data-name="&lt;复合路径&gt;" class="cls-1" d="M141.32,20.78a16.71,16.71,0,0,0-2.5-.2q-8.23,0-8.27,8.16l-.05,17.71-9,0,.1-34.08,8.5,0V15a6.81,6.81,0,0,0,.06,1.47,1.22,1.22,0,0,1,.19-.13,19.45,19.45,0,0,1,4-3.44,11.68,11.68,0,0,1,5.82-1.26h1.21Z"/><path id="_复合路径_7" data-name="&lt;复合路径&gt;" class="cls-1" d="M119.1,31.77,95.64,31.7a9.61,9.61,0,0,0,2.66,6.48,7,7,0,0,0,5,1.92,7.44,7.44,0,0,0,3.9-1,4.68,4.68,0,0,0,2.24-2.74l9.21,0a14.62,14.62,0,0,1-5.52,8,15.71,15.71,0,0,1-9.41,2.82q-17.07,0-17-18.62,0-7.84,4.35-12.53t12.13-4.65Q119.16,11.45,119.1,31.77Zm-9.19-5.71a8.46,8.46,0,0,0-2.32-5.45,6.41,6.41,0,0,0-4.63-2,6,6,0,0,0-4.41,1.84A9.32,9.32,0,0,0,96,26Z"/><path id="_复合路径_8" data-name="&lt;复合路径&gt;" class="cls-1" d="M84.79,48.23a13.05,13.05,0,0,1-5.33,10.85,18.85,18.85,0,0,1-11.69,3.61,17.74,17.74,0,0,1-11.28-3.61,13.24,13.24,0,0,1-5.08-11l8.36,0a6.22,6.22,0,0,0,2.28,5.13,7.86,7.86,0,0,0,5.16,1.67A9.27,9.27,0,0,0,73.08,53a6.93,6.93,0,0,0,2.76-5.68V42.07a7,7,0,0,1-3.52,3.57A12.78,12.78,0,0,1,66.5,46.9a15,15,0,0,1-9.19-3A13.25,13.25,0,0,1,52,34.58a57.55,57.55,0,0,1-.56-6.65,19.82,19.82,0,0,1,2-8.5,13.88,13.88,0,0,1,5.43-6,14.07,14.07,0,0,1,7.54-2.22,10.29,10.29,0,0,1,9.41,5.27.19.19,0,0,1,.13.07V12.21l9,0ZM76.14,30.05q0-11-7.6-11T60.8,29.49a11.66,11.66,0,0,0,2.42,7.81,6.55,6.55,0,0,0,5.25,2.57,6.75,6.75,0,0,0,5.28-2.48A10.87,10.87,0,0,0,76.14,30.05Z"/><rect id="_路径_" data-name="&lt;路径&gt;" class="cls-1" x="26.92" y="24.65" width="34.08" height="9.01" transform="translate(14.67 73.03) rotate(-89.83)"/><circle class="cls-2" cx="44.03" cy="4.37" r="4.37"/><path id="_复合路径_9" data-name="&lt;复合路径&gt;" class="cls-1" d="M37.34,8.33l-13.88,0-.11,37.84-9.65,0,.11-37.85L0,8.22,0,.1,37.36.21Z"/><rect class="cls-3" x="360.12" y="4.6" width="1.5" height="46.47"/></g><g id="图层_13" data-name="图层 13"><path class="cls-3" d="M408.64,9.43l5.76.5c.44,0,.7.16.78.5-.05.55-.7,1.1-2,1.65l-1.33,15.26h4.81l.48-5.48h-3.82l.09-1h3.81l.5-5.64h-4l.1-1.16H417l1.89-2.65,4.78,2.16c.43.11.64.33.61.66-.05.55-.66,1.16-1.82,1.82l-.17,2c-.05.56-.19,2.16-.42,4.81-.15,2.88-.25,4.7-.32,5.47a1.27,1.27,0,0,1-1.11,1.33c-.67.11-2,.28-4,.5l.14-1.66h-4.8l-.37,4.14h2.66l2-2.15,4.4,2.82c.42.22.61.49.58.82s-.84.83-2.09,1.17a33.71,33.71,0,0,1-5.77,5.3,43.86,43.86,0,0,0,9.35,1.16l-.05.66q-2.89.84-4.9,4.81a35.87,35.87,0,0,1-9.46-3.65,43,43,0,0,1-15.94,4l-.12-.5A99.42,99.42,0,0,0,405,41.43a21.75,21.75,0,0,1-4.46-7.79h-4l.09-1h10.11l.36-4.14h-4.64l0,.49a1.29,1.29,0,0,1-1.11,1.33,14.55,14.55,0,0,1-4,.5q.35-2,1-9.78l.13-1.5a.69.69,0,0,1-.51.17h-3.65l-.58,6.63q1.86-.49,3.57-1l.28.5q-2.11,1.48-4.06,2.81l-1.26,14.43q0,3.81-6.68,4.31c.14-2.77-.94-4.37-3.22-4.81l.06-.66,3.3.16a1.62,1.62,0,0,0,1.8-1.65l.75-8.63a10.41,10.41,0,0,0-1,.67,4,4,0,0,0-1.22.66c-.22,1.33-.67,2-1.33,2-.22,0-.42-.27-.59-.83l-1-5.8a19.2,19.2,0,0,1,2-.33,27.26,27.26,0,0,0,3.54-.67l.68-7.79h-4.8l.1-1.16h4.81l0-.5c.06-.66.17-2,.35-4,.08-2.21.16-3.75.24-4.64l6.07.66c.44,0,.65.17.62.5s-.63.94-1.78,1.49l-.57,6.47h.33l1.5-2,2.33,1.82c.15-1.76.3-3.48.45-5.14l3.39,1a12.22,12.22,0,0,0,2-3.48l4.12,2.15,0,.17C408.58,12,408.63,10.76,408.64,9.43Zm5.67,24.21H401.55a24.11,24.11,0,0,0,7,5.47A40.57,40.57,0,0,0,414.31,33.64ZM406.69,22.2H403l-.45,5.14h4.65l.48-5.48C407.58,22.09,407.24,22.2,406.69,22.2Zm.35-7.8a15.78,15.78,0,0,1-3.43,1.33l-.48,5.47h.5l1.66-2,2.48,2,.38-4.31c.06-.66.13-1.49.22-2.49H408A1.39,1.39,0,0,1,407,14.4Z"/><path class="cls-3" d="M426,31.32l-.45-.5a67,67,0,0,0,7.33-15.59,39.25,39.25,0,0,0,1.52-6l6.5,1.49c.44,0,.7.16.79.49.06.56-.59,1.06-2,1.5-1.21,2.54-2.41,4.8-3.58,6.79l1.48.17c.44,0,.7.17.79.5-.06.66-.66,1.22-1.81,1.65L434.5,45.41a1.3,1.3,0,0,1-1.29,1.49,12.46,12.46,0,0,1-4,.33q.76-6.79,1.4-14.09l.6-6.8A34,34,0,0,1,426,31.32Zm22.79-.83,5.75.66c.55,0,.81.17.78.5s-.58.94-1.62,1.49a19.62,19.62,0,0,1-1.91,6.63q13,1.33,12.05,4.48c-.19,2.1-1.05,3.15-2.6,3.15-.67.11-1.36-.28-2.05-1.16a37,37,0,0,0-7.8-5.64q-3.51,6-15.68,6.8l-.28-.66q12.06-3.33,12.94-11.44C448.45,33.86,448.59,32.26,448.74,30.49Zm-8-16.25.09-1h9.28c.13-1.43.19-2.76.19-4l6.09.49c.54.11.8.33.77.67q-.08.83-1.8,1.65l-.11,1.16h4.65l2.59-3.15,4.38,3a.84.84,0,0,1,.28.66c0,.33-.49.5-1.37.5H455.14l-.35,4h4l2.59-3.15,4.22,3c.32.11.47.28.45.5s-.6.55-1.38.66H454.7l-.38,4.31h5l2.93-3.15,4.21,3a.48.48,0,0,1,.29.5q-.06.66-1.38.66H438.49l.08-1h10.62l.37-4.31h-7.79l.09-1h7.79l.19-2.16.16-1.82Zm21.68,17.57q-.4,4.65-.42,6.64a1.14,1.14,0,0,1-.93,1.16,19.09,19.09,0,0,1-4.52.49l1-11.44H445.59l-1,11.11c-.06.78-.38,1.22-.94,1.33a31.48,31.48,0,0,1-4.34.33c.06-.66.22-1.93.5-3.81.12-1.44.21-2.38.24-2.82l.31-3.48c.13-1.55.27-3.15.42-4.81l5.87,1.16h10.44l1.53-2.32,5,1.82c.31.22.46.44.44.66.06.56-.43,1.16-1.49,1.83Z"/><path class="cls-3" d="M486.91,9.27l7,.82c.44,0,.71.17.79.5-.17.66-.88,1.16-2.12,1.49-.79,2.66-1.6,5-2.45,7.13h3.15a28.59,28.59,0,0,0,2.85-8l5.51,1.5c.53.22.79.49.76.83s-.68.77-1.91,1a44.76,44.76,0,0,1-4.69,4.31q.16,0-.36.33h4l2.79-3.48,4.35,3.32q.33,0,.3.33c0,.55-.51.83-1.39.83H489.76A42.2,42.2,0,0,1,487.19,25h12.43l3.31-3.65,4.83,3.48a.49.49,0,0,1,.29.5c-.05.55-.52.83-1.4.83H494.71q5,3.81,13.7,4.47l-.25,1c-1.93.55-3.46,2.32-4.61,5.3A19.22,19.22,0,0,1,499,34.3c0,.22-.06.61-.11,1.16q-.67,4-1.18,6-.94,5.13-9,6,.35-4-4.72-4.81l.23-.66,5.77.33a2.61,2.61,0,0,0,2.51-2.16,44.74,44.74,0,0,0,1-5.8,16,16,0,0,0,.31-1.66h-6.47q-2.09,12.44-19.57,15.26l-.28-.67q12.76-5.64,14.21-14.59h-2.15a58.06,58.06,0,0,1-11.11,5.64l-.42-.83q8.45-5.64,12.59-11.27H469.68l.1-1.16h11.6A30.22,30.22,0,0,0,484,20.21H472l.09-1h12.27A36.4,36.4,0,0,0,486.91,9.27Zm-10,2,.36-.33c4.19,1.44,6.2,3,6.05,4.81s-1.47,2.88-3.58,3c-.89,0-1.39-.5-1.53-1.5A18.67,18.67,0,0,0,477,11.25Zm17.62,18.41q-.82-1.83-1.68-3.48h-6.47A41.24,41.24,0,0,1,481,31.65h12.1Z"/></g></g></svg>